<?xml version="1.0" standalone="no"?>
<!DOCTYPE svg PUBLIC "-//W3C//DTD SVG 20010904//EN"
 "http://www.w3.org/TR/2001/REC-SVG-20010904/DTD/svg10.dtd">
<svg version="1.0" xmlns="http://www.w3.org/2000/svg"
 width="593.000000pt" height="593.000000pt" viewBox="0 0 593.000000 593.000000"
 preserveAspectRatio="xMidYMid meet">
<metadata>
Created by potrace 1.14, written by Peter Selinger 2001-2017
</metadata>
<g transform="translate(0.000000,593.000000) scale(0.100000,-0.100000)"
fill="#000000" stroke="none">
<path d="M1899 5676 c-2 -3 -22 -7 -44 -9 -153 -18 -355 -105 -494 -212 -55
-42 -188 -183 -224 -237 -43 -65 -393 -667 -416 -715 -8 -18 -19 -33 -23 -33
-4 0 -8 -4 -8 -10 0 -5 -24 -50 -52 -100 -29 -49 -59 -103 -67 -118 -8 -15
-17 -29 -20 -32 -3 -3 -14 -20 -23 -38 -10 -17 -26 -47 -35 -64 -10 -18 -21
-35 -24 -38 -3 -3 -8 -9 -10 -15 -3 -8 -48 -86 -89 -155 -52 -88 -81 -141 -81
-147 0 -4 -11 -22 -25 -40 -13 -17 -24 -34 -24 -36 0 -7 -81 -148 -95 -167
-22 -29 -84 -178 -105 -251 -30 -109 -35 -150 -34 -294 0 -129 4 -172 25 -250
6 -22 12 -44 14 -50 11 -47 70 -182 110 -250 23 -38 44 -77 48 -85 4 -8 15
-28 26 -45 10 -16 44 -75 76 -130 150 -259 545 -944 562 -975 11 -19 48 -82
82 -138 33 -57 61 -105 61 -107 0 -10 139 -238 174 -285 41 -56 119 -137 172
-178 44 -35 164 -111 164 -105 0 3 10 -1 23 -10 28 -18 150 -62 197 -71 19 -3
46 -9 60 -13 14 -4 518 -9 1120 -10 938 -2 1106 0 1170 12 97 20 102 21 120
27 8 3 38 14 65 23 63 22 159 68 163 78 2 4 8 7 13 7 40 0 329 259 329 295 0
7 4 15 8 17 8 3 48 68 152 248 95 164 335 578 350 605 9 17 59 102 110 190 51
88 102 178 115 200 12 22 46 81 75 130 29 50 61 106 72 125 11 19 39 67 61
105 23 39 40 73 39 77 -1 5 2 8 6 8 10 0 93 173 108 225 20 66 35 128 41 169
10 62 9 286 -1 341 -26 145 -80 280 -177 441 -27 45 -49 87 -49 93 0 6 -3 11
-7 11 -5 0 -13 10 -19 23 -21 41 -76 142 -84 152 -4 6 -17 26 -28 45 -10 19
-61 107 -112 195 -51 88 -102 176 -113 195 -10 19 -34 60 -52 90 -18 30 -44
75 -58 100 -13 25 -57 101 -97 170 -161 276 -210 362 -210 370 0 5 -3 10 -7
12 -5 2 -19 23 -32 48 -87 162 -231 322 -372 412 -120 78 -270 138 -404 164
-41 8 -2188 18 -2196 10z m1118 -1726 c4 -8 26 -48 50 -88 24 -40 43 -77 43
-81 0 -5 3 -11 8 -13 4 -1 18 -23 31 -48 14 -25 43 -76 66 -115 23 -38 53 -90
67 -115 47 -83 140 -245 156 -270 9 -14 17 -27 17 -30 0 -3 8 -16 17 -30 9
-14 69 -117 134 -230 64 -113 128 -222 141 -242 12 -21 23 -42 23 -48 0 -5 4
-10 8 -10 4 0 13 -12 19 -27 12 -29 54 -104 63 -113 3 -3 10 -16 16 -30 l11
-25 -921 0 c-506 0 -920 4 -919 8 4 10 51 99 63 117 15 22 207 357 244 425 6
11 13 22 16 25 5 5 26 41 57 100 10 19 20 37 23 40 3 3 42 68 85 145 44 77 83
142 87 143 5 2 8 8 8 13 0 9 36 73 129 229 11 19 29 51 39 70 10 19 43 76 72
125 29 50 62 107 73 127 l21 38 22 -38 c13 -20 27 -44 31 -52z m-2766 -1337
c13 -17 13 -17 -6 -3 -11 8 -22 16 -24 17 -2 2 0 3 6 3 6 0 17 -8 24 -17z m59
-45 c0 -5 -9 -3 -20 4 -11 7 -20 16 -20 20 0 5 9 3 20 -4 11 -7 20 -16 20 -20z
m35 -18 c3 -6 -1 -7 -9 -4 -18 7 -21 14 -7 14 6 0 13 -4 16 -10z m40 -20 c3
-6 -1 -7 -9 -4 -18 7 -21 14 -7 14 6 0 13 -4 16 -10z"/>
</g>
</svg>
